<svg xmlns="http://www.w3.org/2000/svg" viewBox="0 0 64 64" fill="none">
  <!-- Tooth outline -->
  <path d="M32 8C24 8 20 14 20 22C20 28 18 36 18 42C18 48 20 56 24 56C28 56 30 52 32 48C34 52 36 56 40 56C44 56 46 48 46 42C46 36 44 28 44 22C44 14 40 8 32 8Z" 
        fill="#ffffff" 
        stroke="#1a73e8" 
        stroke-width="2"/>
  
  <!-- Modern dental cross -->
  <path d="M32 26L32 38M26 32L38 32" 
        stroke="#1a73e8" 
        stroke-width="3" 
        stroke-linecap="round"/>
  
  <!-- Shine effect -->
  <circle cx="26" cy="20" r="2" fill="#87CEEB" opacity="0.6"/>
</svg>